<svg width="18" height="14" viewBox="0 0 18 14" fill="none" xmlns="http://www.w3.org/2000/svg">
<path d="M15.6666 3.66667L8.99996 7.83333L2.33329 3.66667V2L8.99996 6.16667L15.6666 2V3.66667ZM15.6666 0.333333H2.33329C1.40829 0.333333 0.666626 1.075 0.666626 2V12C0.666626 12.442 0.842221 12.866 1.15478 13.1785C1.46734 13.4911 1.89127 13.6667 2.33329 13.6667H15.6666C16.1087 13.6667 16.5326 13.4911 16.8451 13.1785C17.1577 12.866 17.3333 12.442 17.3333 12V2C17.3333 1.55797 17.1577 1.13405 16.8451 0.821489C16.5326 0.508928 16.1087 0.333333 15.6666 0.333333Z" fill="#ECEFF4"/>
</svg>
