<svg width="18" height="15" viewBox="0 0 18 15" fill="none" xmlns="http://www.w3.org/2000/svg">
<path d="M17.7167 2C17.075 2.29167 16.3833 2.48333 15.6667 2.575C16.4 2.13333 16.9667 1.43333 17.2333 0.591667C16.5417 1.00833 15.775 1.3 14.9667 1.46667C14.3083 0.75 13.3833 0.333333 12.3333 0.333333C10.375 0.333333 8.77499 1.93333 8.77499 3.90833C8.77499 4.19167 8.80832 4.46667 8.86666 4.725C5.89999 4.575 3.25832 3.15 1.49999 0.991667C1.19166 1.51667 1.01666 2.13333 1.01666 2.78333C1.01666 4.025 1.64166 5.125 2.60833 5.75C2.01666 5.75 1.46666 5.58333 0.983325 5.33333V5.35833C0.983325 7.09167 2.21666 8.54167 3.84999 8.86667C3.3256 9.01017 2.77507 9.03014 2.24166 8.925C2.468 9.6354 2.91127 10.257 3.50917 10.7024C4.10707 11.1479 4.82953 11.3947 5.57499 11.4083C4.31135 12.4087 2.74499 12.9494 1.13333 12.9417C0.849992 12.9417 0.566658 12.925 0.283325 12.8917C1.86666 13.9083 3.74999 14.5 5.76666 14.5C12.3333 14.5 15.9417 9.05 15.9417 4.325C15.9417 4.16667 15.9417 4.01667 15.9333 3.85833C16.6333 3.35833 17.2333 2.725 17.7167 2Z" fill="#ECEFF4"/>
</svg>
