<svg width="17" height="17" viewBox="0 0 17 17" fill="none" xmlns="http://www.w3.org/2000/svg">
<path d="M8.33333 0C7.23898 0 6.15535 0.215548 5.1443 0.634337C4.13326 1.05313 3.2146 1.66696 2.44078 2.44078C0.877974 4.00358 0 6.1232 0 8.33333C0 12.0167 2.39167 15.1417 5.7 16.25C6.11667 16.3167 6.25 16.0583 6.25 15.8333V14.425C3.94167 14.925 3.45 13.3083 3.45 13.3083C3.06667 12.3417 2.525 12.0833 2.525 12.0833C1.76667 11.5667 2.58333 11.5833 2.58333 11.5833C3.41667 11.6417 3.85833 12.4417 3.85833 12.4417C4.58333 13.7083 5.80833 13.3333 6.28333 13.1333C6.35833 12.5917 6.575 12.225 6.80833 12.0167C4.95833 11.8083 3.01667 11.0917 3.01667 7.91667C3.01667 6.99167 3.33333 6.25 3.875 5.65833C3.79167 5.45 3.5 4.58333 3.95833 3.45833C3.95833 3.45833 4.65833 3.23333 6.25 4.30833C6.90833 4.125 7.625 4.03333 8.33333 4.03333C9.04167 4.03333 9.75833 4.125 10.4167 4.30833C12.0083 3.23333 12.7083 3.45833 12.7083 3.45833C13.1667 4.58333 12.875 5.45 12.7917 5.65833C13.3333 6.25 13.65 6.99167 13.65 7.91667C13.65 11.1 11.7 11.8 9.84167 12.0083C10.1417 12.2667 10.4167 12.775 10.4167 13.55V15.8333C10.4167 16.0583 10.55 16.325 10.975 16.25C14.2833 15.1333 16.6667 12.0167 16.6667 8.33333C16.6667 7.23898 16.4511 6.15535 16.0323 5.1443C15.6135 4.13326 14.9997 3.2146 14.2259 2.44078C13.4521 1.66696 12.5334 1.05313 11.5224 0.634337C10.5113 0.215548 9.42768 0 8.33333 0Z" fill="#ECEFF4"/>
</svg>
