<svg width="8" height="8" viewBox="0 0 8 8" fill="none" xmlns="http://www.w3.org/2000/svg">
<path d="M0.25 0.25H7.75V7.75H0.25V0.25ZM2.22083 6.51667C2.3875 6.87083 2.71667 7.1625 3.27917 7.1625C3.90417 7.1625 4.33333 6.82917 4.33333 6.1V3.69167H3.625V6.08333C3.625 6.44167 3.47917 6.53333 3.25 6.53333C3.00833 6.53333 2.90833 6.36667 2.79583 6.17083L2.22083 6.51667ZM4.7125 6.44167C4.92083 6.85 5.34167 7.1625 6 7.1625C6.66667 7.1625 7.16667 6.81667 7.16667 6.17917C7.16667 5.59167 6.82917 5.32917 6.22917 5.07083L6.05417 4.99583C5.75 4.86667 5.62083 4.77917 5.62083 4.57083C5.62083 4.4 5.75 4.26667 5.95833 4.26667C6.15833 4.26667 6.29167 4.35417 6.4125 4.57083L6.95833 4.20833C6.72917 3.80833 6.40417 3.65417 5.95833 3.65417C5.32917 3.65417 4.925 4.05417 4.925 4.58333C4.925 5.15833 5.2625 5.42917 5.77083 5.64583L5.94583 5.72083C6.27083 5.8625 6.4625 5.95 6.4625 6.19167C6.4625 6.39167 6.275 6.5375 5.98333 6.5375C5.6375 6.5375 5.4375 6.35833 5.2875 6.10833L4.7125 6.44167Z" fill="#F4BF75"/>
</svg>
