<svg width="18" height="18" viewBox="0 0 18 18" fill="none" xmlns="http://www.w3.org/2000/svg">
<path d="M5.49996 0.666667H12.5C15.1666 0.666667 17.3333 2.83333 17.3333 5.5V12.5C17.3333 13.7819 16.8241 15.0113 15.9176 15.9177C15.0112 16.8241 13.7818 17.3333 12.5 17.3333H5.49996C2.83329 17.3333 0.666626 15.1667 0.666626 12.5V5.5C0.666626 4.21812 1.17585 2.98874 2.08228 2.08232C2.9887 1.17589 4.21808 0.666667 5.49996 0.666667ZM5.33329 2.33333C4.53764 2.33333 3.77458 2.6494 3.21197 3.21201C2.64936 3.77462 2.33329 4.53768 2.33329 5.33333V12.6667C2.33329 14.325 3.67496 15.6667 5.33329 15.6667H12.6666C13.4623 15.6667 14.2253 15.3506 14.7879 14.788C15.3506 14.2254 15.6666 13.4623 15.6666 12.6667V5.33333C15.6666 3.675 14.325 2.33333 12.6666 2.33333H5.33329ZM13.375 3.58333C13.6512 3.58333 13.9162 3.69308 14.1115 3.88843C14.3069 4.08378 14.4166 4.34873 14.4166 4.625C14.4166 4.90127 14.3069 5.16622 14.1115 5.36157C13.9162 5.55692 13.6512 5.66667 13.375 5.66667C13.0987 5.66667 12.8337 5.55692 12.6384 5.36157C12.443 5.16622 12.3333 4.90127 12.3333 4.625C12.3333 4.34873 12.443 4.08378 12.6384 3.88843C12.8337 3.69308 13.0987 3.58333 13.375 3.58333ZM8.99996 4.83333C10.105 4.83333 11.1648 5.27232 11.9462 6.05372C12.7276 6.83512 13.1666 7.89493 13.1666 9C13.1666 10.1051 12.7276 11.1649 11.9462 11.9463C11.1648 12.7277 10.105 13.1667 8.99996 13.1667C7.89489 13.1667 6.83508 12.7277 6.05368 11.9463C5.27228 11.1649 4.83329 10.1051 4.83329 9C4.83329 7.89493 5.27228 6.83512 6.05368 6.05372C6.83508 5.27232 7.89489 4.83333 8.99996 4.83333ZM8.99996 6.5C8.33692 6.5 7.70103 6.76339 7.23219 7.23223C6.76335 7.70107 6.49996 8.33696 6.49996 9C6.49996 9.66304 6.76335 10.2989 7.23219 10.7678C7.70103 11.2366 8.33692 11.5 8.99996 11.5C9.663 11.5 10.2989 11.2366 10.7677 10.7678C11.2366 10.2989 11.5 9.66304 11.5 9C11.5 8.33696 11.2366 7.70107 10.7677 7.23223C10.2989 6.76339 9.663 6.5 8.99996 6.5Z" fill="#ECEFF4"/>
</svg>
