<svg width="8" height="8" viewBox="0 0 8 8" fill="none" xmlns="http://www.w3.org/2000/svg">
<path d="M7.33333 0.25C7.44384 0.25 7.54982 0.293899 7.62796 0.372039C7.7061 0.450179 7.75 0.55616 7.75 0.666667V7.33333C7.75 7.44384 7.7061 7.54982 7.62796 7.62796C7.54982 7.7061 7.44384 7.75 7.33333 7.75H0.666667C0.55616 7.75 0.450179 7.7061 0.372039 7.62796C0.293899 7.54982 0.25 7.44384 0.25 7.33333V0.666667C0.25 0.55616 0.293899 0.450179 0.372039 0.372039C0.450179 0.293899 0.55616 0.25 0.666667 0.25H7.33333ZM6.91667 1.08333H1.08333V6.91667H6.91667V1.08333ZM6.08333 1.91667V6.08333H5.04167V2.95833H4V6.08333H1.91667V1.91667H6.08333Z" fill="#D04748"/>
</svg>
